<?xml version="1.0" encoding="UTF-8" standalone="no"?>
<svg
   xmlns:dc="http://purl.org/dc/elements/1.1/"
   xmlns:cc="http://creativecommons.org/ns#"
   xmlns:rdf="http://www.w3.org/1999/02/22-rdf-syntax-ns#"
   xmlns:svg="http://www.w3.org/2000/svg"
   xmlns="http://www.w3.org/2000/svg"
   xmlns:sodipodi="http://sodipodi.sourceforge.net/DTD/sodipodi-0.dtd"
   xmlns:inkscape="http://www.inkscape.org/namespaces/inkscape"
   viewBox="0 0 40 40"
   version="1.1"
   id="svg14"
   sodipodi:docname="at.svg"
   inkscape:version="1.0.2-2 (e86c870879, 2021-01-15)">
  <metadata
     id="metadata20">
    <rdf:RDF>
      <cc:Work
         rdf:about="">
        <dc:format>image/svg+xml</dc:format>
        <dc:type
           rdf:resource="http://purl.org/dc/dcmitype/StillImage" />
      </cc:Work>
    </rdf:RDF>
  </metadata>
  <path
     d="m 24.532005,15.828606 q 0,-1.316022 -0.794587,-2.209801 -0.794587,-0.893864 -2.135313,-0.893864 -2.582249,0 -4.444452,3.227808 -1.862197,3.202966 -1.862197,6.207315 0,1.812547 0.819452,2.929871 0.844138,1.117285 2.358772,1.117285 2.656732,0 4.345136,-4.022343 1.713136,-4.047175 1.713136,-6.356305 z m -7.647409,14.028565 q -3.004354,0 -5.015527,-2.160145 -1.986341,-2.160159 -1.986341,-6.033531 0,-4.494107 3.054009,-8.417139 3.05399,-3.923027 7.498442,-3.923027 2.607077,0 4.04717,1.44017 1.092424,1.117285 1.465031,2.557417 l 0.893869,-3.128498 h 4.692734 L 28.35583,20.968329 q -0.372415,1.316026 -0.5463,1.961513 -0.149548,0.620717 -0.149548,1.092425 0,0.74486 0.496569,1.415303 0.496573,0.645578 1.588997,0.645578 2.135332,0 4.270649,-2.780876 2.160145,-2.805703 2.160145,-7.423973 0,-6.828051 -5.859718,-9.807572 -3.674726,-1.88703 -8.268144,-1.88703 -8.441967,0 -13.556805,5.164498 -4.618246,4.667921 -4.618246,11.198029 0,7.250156 5.41278,11.495957 4.79205,3.749228 11.694603,3.749228 4.717561,0 8.814411,-1.738002 2.234628,-0.91873 4.618251,-2.607077 l 0.59585,-0.422138 1.812524,2.780881 q -3.525755,2.73122 -7.647413,4.171314 -4.096845,1.415303 -8.51645,1.415303 -10.304165,0 -15.965251,-6.405965 Q 0,27.67226 0,20.397258 0,12.253257 5.859718,6.592171 12.017377,0.60831 21.626318,0.60831 q 7.821231,0 12.960902,4.096831 Q 40,9.025444 40,16.176284 q 0,5.636259 -3.426439,9.683434 -3.426439,4.022342 -7.821231,4.022342 -2.284302,0 -3.525755,-1.29116 -1.216563,-1.29116 -1.216563,-2.656733 0,-0.172954 0,-0.372415 0.02527,-0.22344 0.05044,-0.471717 -0.943592,1.787733 -2.110504,2.855363 -2.110484,1.911858 -5.065164,1.911858 z" />
</svg>
